<svg width="38" height="36" viewBox="0 0 38 36" fill="none" xmlns="http://www.w3.org/2000/svg">
<path d="M35.1877 0.991003C34.6966 1.01384 34.234 1.1566 33.8229 1.3165H33.8172C33.4003 1.4821 31.4188 2.31582 28.4094 3.57782C25.4 4.84553 21.4941 6.49013 17.6167 8.1233C9.87342 11.3839 2.26145 14.5932 2.26145 14.5932L2.35281 14.5589C2.35281 14.5589 1.82746 14.7302 1.27926 15.1071C0.999447 15.2899 0.691084 15.5411 0.422696 15.9351C0.154306 16.3292 -0.0626902 16.9345 0.0172563 17.5569C0.148596 18.6133 0.833845 19.2472 1.32494 19.5955C1.82175 19.9496 2.29571 20.1152 2.29571 20.1152H2.30713L9.44514 22.5192C9.76493 23.5471 11.6208 29.6458 12.0662 31.0506C12.3289 31.89 12.5859 32.4154 12.9057 32.8151C13.0598 33.0207 13.2426 33.192 13.4596 33.3291C13.5452 33.3804 13.6366 33.4204 13.728 33.4547C13.7565 33.4718 13.7851 33.4775 13.8193 33.4832L13.7451 33.4661C13.7679 33.4718 13.7851 33.4889 13.8022 33.4947C13.8593 33.5118 13.8993 33.5175 13.9735 33.5289C15.1042 33.8715 16.0121 33.1692 16.0121 33.1692L16.0635 33.1292L20.2778 29.2918L27.3416 34.711L27.5015 34.7795C28.9747 35.4248 30.4652 35.065 31.2532 34.4312C32.0469 33.7916 32.3553 32.975 32.3553 32.975L32.4067 32.8437L37.8659 4.87979C38.02 4.18883 38.06 3.54356 37.8887 2.91541C37.7174 2.28727 37.2777 1.69909 36.7466 1.38502C36.2098 1.06524 35.6788 0.968161 35.1877 0.991003ZM35.0392 3.98897C35.0335 4.08033 35.0506 4.06891 35.0106 4.24594V4.26307L29.6029 31.9357C29.58 31.9757 29.5401 32.0613 29.4316 32.147C29.3174 32.2384 29.226 32.2955 28.752 32.107L20.1122 25.483L14.8929 30.2397L15.9893 23.2388C15.9893 23.2388 29.5229 10.6245 30.1054 10.082C30.6879 9.53949 30.4937 9.42528 30.4937 9.42528C30.5337 8.76287 29.6143 9.23113 29.6143 9.23113L11.815 20.2579L11.8093 20.2294L3.2779 17.357V17.3513C3.27219 17.3513 3.26077 17.3456 3.25506 17.3456C3.26077 17.3456 3.30074 17.3285 3.30074 17.3285L3.34643 17.3056L3.39211 17.2885C3.39211 17.2885 11.0098 14.0793 18.7531 10.8186C22.6305 9.18544 26.5364 7.54084 29.5401 6.27313C32.5438 5.01113 34.7651 4.08604 34.8907 4.03465C35.0106 3.98897 34.9535 3.98897 35.0392 3.98897Z" fill="white"/>
</svg>
